<?xml version="1.0" encoding="UTF-8"?>
<svg width="30px" height="30px" viewBox="0 0 30 30" version="1.1" xmlns="http://www.w3.org/2000/svg" xmlns:xlink="http://www.w3.org/1999/xlink">
    <!-- Generator: Sketch 49.3 (51167) - http://www.bohemiancoding.com/sketch -->
    <title>False Stroked</title>
    <desc>Created with Sketch.</desc>
    <defs></defs>
    <g id="Page-1" stroke="none" stroke-width="1" fill="none" fill-rule="evenodd">
        <g id="Components" transform="translate(-646.000000, -1583.000000)" fill="#B2B2B2">
            <g id="Icons" transform="translate(603.000000, 1492.000000)">
                <g id="True/False-Icons" transform="translate(0.000000, 90.000000)">
                    <g id="False-Stroked" transform="translate(43.000000, 1.000000)">
                        <path d="M17.13,15 L21.96,10.17 L19.83,8.04 L15,12.87 L10.17,8.04 L8.04,10.17 L12.87,15 L8.04,19.83 L10.17,21.96 L15,17.13 L19.83,21.96 L21.96,19.83 L17.13,15 Z M27,15 C27,21.6 21.6,27 15,27 C8.4,27 3,21.6 3,15 C3,8.4 8.37,3 15,3 C21.6,3 27,8.4 27,15 L27,15 Z M30,15 C30,6.72 23.28,0 15,0 C6.72,0 0,6.72 0,15 C0,23.28 6.72,30 15,30 C23.28,30 30,23.28 30,15 L30,15 Z"></path>
                    </g>
                </g>
            </g>
        </g>
    </g>
</svg>