<?xml version="1.0" encoding="UTF-8"?>
<svg width="24px" height="14px" viewBox="0 0 24 14" version="1.1" xmlns="http://www.w3.org/2000/svg" xmlns:xlink="http://www.w3.org/1999/xlink">
    <!-- Generator: Sketch 49.3 (51167) - http://www.bohemiancoding.com/sketch -->
    <title>Phone Icon</title>
    <desc>Created with Sketch.</desc>
    <defs></defs>
    <g id="Page-1" stroke="none" stroke-width="1" fill="none" fill-rule="evenodd">
        <g id="Components" transform="translate(-863.000000, -936.000000)" fill="#DDDDDD">
            <g id="Social" transform="translate(100.000000, 849.000000)">
                <g id="Contacts" transform="translate(720.000000, 87.000000)">
                    <g id="Phone-Icon" transform="translate(43.000000, 0.000000)">
                        <path d="M14.394,9.32711111 C14.394,10.682 13.314,11.7133333 11.9955,11.7133333 C10.6755,11.7133333 9.597,10.682 9.597,9.32711111 C9.597,7.97066667 10.6755,6.86155556 11.9955,6.86155556 C13.314,6.86155556 14.394,7.97066667 14.394,9.32711111 L14.394,9.32711111 Z M20.8005,12.9251111 C20.8005,12.32 17.49,5.72444444 16.866,4.43333333 C16.05,4.36333333 15.21,4.31666667 14.394,4.27 L13.5555,5.72444444 L10.3875,5.72444444 L9.5715,4.27 C8.757,4.31666667 7.917,4.36333333 7.101,4.43333333 C6.477,5.70888889 3.1905,12.3028889 3.1905,12.9251111 C3.1905,13.3124444 3.4785,13.3466667 3.9345,13.4151111 C4.7505,13.5317778 5.5905,13.5831111 6.405,13.6671111 C8.301,13.8491111 10.1955,14 12.0915,14 C14.034,14 15.978,13.8273333 17.8965,13.65 C18.6165,13.5831111 19.3365,13.5317778 20.0565,13.4151111 C20.4885,13.3295556 20.8005,13.2968889 20.8005,12.9251111 L20.8005,12.9251111 Z M24,5.06022222 C23.583,3.78155556 22.935,2.45933333 22.023,1.57266667 C18.9045,0.432444444 15.354,0 11.9715,0 C8.469,0 5.1585,0.550666667 1.9425,1.72977778 C1.032,2.59777778 0.408,3.89822222 0,5.12866667 L0.432,5.90955556 L4.0065,5.08355556 L5.4705,2.66777778 C7.605,2.296 9.7875,2.27266667 11.9715,2.27266667 C14.154,2.27266667 16.338,2.296 18.4965,2.66777778 L19.9845,5.08355556 C21.207,5.33866667 22.383,5.63266667 23.607,5.80222222 L24,5.06022222 L24,5.06022222 Z"></path>
                    </g>
                </g>
            </g>
        </g>
    </g>
</svg>