<?xml version="1.0" encoding="UTF-8"?>
<svg width="16px" height="14px" viewBox="0 0 16 14" version="1.1" xmlns="http://www.w3.org/2000/svg" xmlns:xlink="http://www.w3.org/1999/xlink">
    <!-- Generator: Sketch 49.3 (51167) - http://www.bohemiancoding.com/sketch -->
    <title>Twitter Icon</title>
    <desc>Created with Sketch.</desc>
    <defs></defs>
    <g id="Page-1" stroke="none" stroke-width="1" fill="none" fill-rule="evenodd">
        <g id="Components" transform="translate(-385.000000, -929.000000)" fill="#B2B2B2">
            <g id="Social" transform="translate(100.000000, 849.000000)">
                <g id="Social-Stroked" transform="translate(255.000000, 2.000000)">
                    <g id="Twitter" transform="translate(0.000000, 64.380952)">
                        <path d="M40.5826772,15.0284341 C41.3385827,14.8743697 41.7165354,14.5662407 41.8425197,14.4121762 C41.8425197,14.2581118 41.8425197,14.1040473 41.7165354,14.1040473 C41.3385827,14.1040473 40.9606299,14.2581118 40.7086614,14.4121762 C41.0866142,14.1040473 41.2125984,13.9499828 41.2125984,13.7959184 C40.8346457,13.7959184 40.4566929,14.1040473 39.9527559,14.5662407 C40.0787402,14.2581118 40.2047244,14.1040473 40.0787402,13.9499828 C39.8267717,14.1040473 39.7007874,14.2581118 39.5748031,14.5662407 C39.1968504,15.0284341 38.9448819,15.3365631 38.8188976,15.7987565 C38.3149606,16.8772078 37.9370079,17.8015946 37.6850394,18.8800459 L37.5590551,18.8800459 C37.3070866,18.4178525 36.9291339,17.9556591 36.4251969,17.6475301 C35.9212598,17.1853367 35.2913386,16.8772078 34.5354331,16.4150144 C33.7795276,15.952821 33.023622,15.4906275 32.1417323,15.1824986 C32.1417323,16.2609499 32.519685,17.1853367 33.4015748,17.8015946 C33.1496063,17.8015946 32.7716535,17.8015946 32.519685,17.9556591 C32.519685,18.8800459 33.1496063,19.6503682 34.2834646,19.9584972 C33.9055118,19.9584972 33.5275591,20.1125617 33.1496063,20.4206906 C33.5275591,21.3450774 34.1574803,21.6532064 35.1653543,21.6532064 C35.0393701,21.8072708 34.7874016,21.9613353 34.7874016,21.9613353 C34.6614173,22.1153998 34.5354331,22.4235287 34.6614173,22.7316577 C34.9133858,23.1938511 35.1653543,23.3479155 35.7952756,23.3479155 C34.9133858,24.4263668 33.7795276,25.0426247 32.519685,24.8885602 C31.7637795,24.8885602 30.8818898,24.4263668 30,23.50198 C30.8818898,25.0426247 32.1417323,26.2751405 33.6535433,27.0454628 C35.4173228,27.6617207 37.1811024,27.8157852 38.8188976,27.1995273 C40.4566929,26.5832694 41.9685039,25.3507537 43.1023622,23.6560445 C43.6062992,22.7316577 43.984252,21.8072708 44.1102362,20.882884 C44.992126,20.882884 45.6220472,20.5747551 46,19.9584972 C45.7480315,20.1125617 45.1181102,20.1125617 44.2362205,19.8044327 C45.1181102,19.6503682 45.7480315,19.3422393 45.8740157,18.7259814 C45.2440945,19.0341104 44.6141732,19.0341104 43.984252,18.7259814 C43.8582677,17.6475301 43.480315,16.7231433 42.7244094,15.952821 C42.0944882,15.1824986 41.3385827,14.8743697 40.5826772,15.0284341 Z" id="Twitter-Icon"></path>
                    </g>
                </g>
            </g>
        </g>
    </g>
</svg>