<?xml version="1.0" encoding="UTF-8"?>
<svg width="71px" height="11px" viewBox="0 0 71 11" version="1.1" xmlns="http://www.w3.org/2000/svg" xmlns:xlink="http://www.w3.org/1999/xlink">
    <!-- Generator: Sketch 49.3 (51167) - http://www.bohemiancoding.com/sketch -->
    <title>Rating</title>
    <desc>Created with Sketch.</desc>
    <defs></defs>
    <g id="Page-1" stroke="none" stroke-width="1" fill="none" fill-rule="evenodd">
        <g id="Testimonials-#6" transform="translate(-657.000000, -51.000000)">
            <g id="Rating" transform="translate(657.000000, 51.000000)">
                <path d="M71,4.235 C71,4.015 70.5986159,3.9875 70.432526,3.9875 L66.5570934,4.00125 L65.3529412,0.44 C65.2975779,0.28875 65.1868512,0 64.9930796,0 C64.799308,0 64.6885813,0.28875 64.633218,0.44 L63.4429066,4.00125 L59.5536332,3.9875 C59.3875433,3.9875 59,4.015 59,4.235 C59,4.4 59.2076125,4.565 59.3321799,4.6475 L62.4740484,6.8475 L61.2698962,10.40875 C61.2283737,10.51875 61.200692,10.62875 61.200692,10.73875 C61.200692,10.87625 61.2698962,11 61.4083045,11 C61.5743945,11 61.7266436,10.90375 61.8512111,10.8075 L64.9930796,8.62125 L68.1349481,10.8075 C68.2595156,10.89 68.4117647,11 68.5778547,11 C68.7301038,11 68.7716263,10.8625 68.7716263,10.725 C68.7716263,10.615 68.7577855,10.505 68.716263,10.40875 L67.5259516,6.8475 L70.6678201,4.6475 C70.7923875,4.565 71,4.4 71,4.235 L71,4.235 Z" id="t-4" fill="#B2B2B2"></path>
                <path d="M56,4.235 C56,4.015 55.5986159,3.9875 55.432526,3.9875 L51.5570934,4.00125 L50.3529412,0.44 C50.2975779,0.28875 50.1868512,0 49.9930796,0 C49.799308,0 49.6885813,0.28875 49.633218,0.44 L48.4429066,4.00125 L44.5536332,3.9875 C44.3875433,3.9875 44,4.015 44,4.235 C44,4.4 44.2076125,4.565 44.3321799,4.6475 L47.4740484,6.8475 L46.2698962,10.40875 C46.2283737,10.51875 46.200692,10.62875 46.200692,10.73875 C46.200692,10.87625 46.2698962,11 46.4083045,11 C46.5743945,11 46.7266436,10.90375 46.8512111,10.8075 L49.9930796,8.62125 L53.1349481,10.8075 C53.2595156,10.89 53.4117647,11 53.5778547,11 C53.7301038,11 53.7716263,10.8625 53.7716263,10.725 C53.7716263,10.615 53.7577855,10.505 53.716263,10.40875 L52.5259516,6.8475 L55.6678201,4.6475 C55.7923875,4.565 56,4.4 56,4.235 L56,4.235 Z" id="Star" fill="#B2B2B2"></path>
                <path d="M40.432526,3.9875 L36.5570934,4.00125 L35.3529412,0.44 C35.2975779,0.28875 35.1868512,0 34.9930796,0 C34.799308,0 34.6885813,0.28875 34.633218,0.44 L33.4429066,4.00125 L29.5536332,3.9875 C29.3875433,3.9875 29,4.015 29,4.235 C29,4.4 29.2076125,4.565 29.3321799,4.6475 L32.4740484,6.8475 L31.2698962,10.40875 C31.2283737,10.51875 31.200692,10.62875 31.200692,10.73875 C31.200692,10.87625 31.2698962,11 31.4083045,11 C31.5743945,11 31.7266436,10.90375 31.8512111,10.8075 L34.9930796,8.62125 L38.1349481,10.8075 C38.2595156,10.89 38.4117647,11 38.5778547,11 C38.7301038,11 38.7716263,10.8625 38.7716263,10.725 C38.7716263,10.615 38.7577855,10.505 38.716263,10.40875 L37.5259516,6.8475 L40.6678201,4.6475 C40.7923875,4.565 41,4.4 41,4.235 C41,4.015 40.5986159,3.9875 40.432526,3.9875 Z" id="Star-Active" fill="#282828"></path>
                <path d="M25.432526,3.9875 L21.5570934,4.00125 L20.3529412,0.44 C20.2975779,0.28875 20.1868512,0 19.9930796,0 C19.799308,0 19.6885813,0.28875 19.633218,0.44 L18.4429066,4.00125 L14.5536332,3.9875 C14.3875433,3.9875 14,4.015 14,4.235 C14,4.4 14.2076125,4.565 14.3321799,4.6475 L17.4740484,6.8475 L16.2698962,10.40875 C16.2283737,10.51875 16.200692,10.62875 16.200692,10.73875 C16.200692,10.87625 16.2698962,11 16.4083045,11 C16.5743945,11 16.7266436,10.90375 16.8512111,10.8075 L19.9930796,8.62125 L23.1349481,10.8075 C23.2595156,10.89 23.4117647,11 23.5778547,11 C23.7301038,11 23.7716263,10.8625 23.7716263,10.725 C23.7716263,10.615 23.7577855,10.505 23.716263,10.40875 L22.5259516,6.8475 L25.6678201,4.6475 C25.7923875,4.565 26,4.4 26,4.235 C26,4.015 25.5986159,3.9875 25.432526,3.9875 Z" id="Star-Active" fill="#282828"></path>
                <path d="M12,4.235 C12,4.015 11.5986159,3.9875 11.432526,3.9875 L7.55709343,4.00125 L6.35294118,0.44 C6.29757785,0.28875 6.18685121,0 5.99307958,0 C5.79930796,0 5.68858131,0.28875 5.63321799,0.44 L4.44290657,4.00125 L0.553633218,3.9875 C0.387543253,3.9875 0,4.015 0,4.235 C0,4.4 0.207612457,4.565 0.332179931,4.6475 L3.47404844,6.8475 L2.26989619,10.40875 C2.2283737,10.51875 2.20069204,10.62875 2.20069204,10.73875 C2.20069204,10.87625 2.26989619,11 2.4083045,11 C2.57439446,11 2.7266436,10.90375 2.85121107,10.8075 L5.99307958,8.62125 L9.1349481,10.8075 C9.25951557,10.89 9.41176471,11 9.57785467,11 C9.73010381,11 9.7716263,10.8625 9.7716263,10.725 C9.7716263,10.615 9.75778547,10.505 9.71626298,10.40875 L8.52595156,6.8475 L11.6678201,4.6475 C11.7923875,4.565 12,4.4 12,4.235 L12,4.235 Z" id="Star-Active" fill="#282828"></path>
            </g>
        </g>
    </g>
</svg>